<?xml version="1.0" standalone="no"?>
<!DOCTYPE svg PUBLIC "-//W3C//DTD SVG 1.1//EN" "http://www.w3.org/Graphics/SVG/1.1/DTD/svg11.dtd" >
<svg xmlns="http://www.w3.org/2000/svg" xmlns:xlink="http://www.w3.org/1999/xlink" version="1.1">
<metadata>
Created by FontForge 20201107 at Wed Oct 16 21:15:48 2024
 By 
Alfin Weniardi
</metadata>
<defs>
<font id="Ibrand-Regular" horiz-adv-x="1124" >
  <font-face 
    font-family="Ibrand"
    font-weight="400"
    font-stretch="normal"
    units-per-em="2048"
    panose-1="0 0 0 0 0 0 0 0 0 0"
    ascent="1638"
    descent="-410"
    x-height="1024"
    cap-height="1434"
    bbox="-152 -512 2200 1829"
    underline-thickness="102"
    underline-position="-255"
    unicode-range="U+000D-2212"
  />
<missing-glyph horiz-adv-x="1024" 
 />
    <glyph glyph-name=".notdef" horiz-adv-x="1024" 
 />
    <glyph glyph-name="uni0000" horiz-adv-x="0" 
 />
    <glyph glyph-name="uni0000" horiz-adv-x="0" 
 />
    <glyph glyph-name="uni000D" unicode="&#xd;" horiz-adv-x="512" 
 />
    <glyph glyph-name="space" unicode=" " horiz-adv-x="512" 
 />
    <glyph glyph-name="exclam" unicode="!" horiz-adv-x="548" 
d="M215 381q-11 137 -31.5 343t-33 366.5t-17.5 343.5h281q-5 -183 -17.5 -343.5t-33 -366.5t-31.5 -343h-117zM123 133q0 67 41.5 108.5t109.5 41.5t110 -41.5t42 -108.5q0 -69 -42 -110t-110 -41t-109.5 41t-41.5 110z" />
    <glyph glyph-name="quotedbl" unicode="&#x22;" horiz-adv-x="729" 
d="M184 938l-61 496h207l-62 -496h-84zM461 938l-62 496h207l-61 -496h-84z" />
    <glyph glyph-name="numbersign" unicode="#" horiz-adv-x="1318" 
d="M215 0l70 410h-224v143h248l56 328h-220v143h244l70 410h155l-69 -410h329l70 410h156l-70 -410h227v-143h-251l-56 -328h224v-143h-248l-70 -410h-156l70 410h-330l-69 -410h-156zM465 553h330l55 328h-330z" />
    <glyph glyph-name="dollar" unicode="$" horiz-adv-x="1126" 
d="M1065 444q0 -164 -104.5 -267.5t-307.5 -115.5v-170h-155v175q-261 33 -437 202l162 176q135 -116 275 -141v342q-52 14 -87 25t-83.5 29.5t-80 37.5t-66.5 47.5t-55.5 61.5t-34 77.5t-13.5 96.5q0 157 111.5 252.5t308.5 101.5v162h155v-172q220 -34 391 -182l-149 -187
q-120 98 -242 129v-272q69 -19 120.5 -38t109.5 -52.5t95 -74.5t62 -103.5t25 -139.5zM498 893v246q-76 -5 -125 -32t-49 -79q0 -48 44 -78t130 -57zM653 600v-301q79 11 122.5 47t43.5 94t-43 95.5t-123 64.5z" />
    <glyph glyph-name="percent" unicode="%" horiz-adv-x="1605" 
d="M61 1004q0 234 78.5 343t218.5 109q139 0 217 -109.5t78 -342.5t-78 -343t-217 -110q-140 0 -218.5 109.5t-78.5 343.5zM266 1004q0 -259 90 -259q95 0 95 259q0 258 -95 258q-90 0 -90 -258zM293 0l803 1434h219l-803 -1434h-219zM952 432q0 234 78.5 343.5t218.5 109.5
q139 0 217 -110t78 -343t-78 -342.5t-217 -109.5q-140 0 -218.5 109t-78.5 343zM1157 432q0 -258 90 -258q94 0 94 258t-94 258q-90 0 -90 -258z" />
    <glyph glyph-name="ampersand" unicode="&#x26;" horiz-adv-x="1296" 
d="M963 0l-74 88q-166 -123 -379 -123q-97 0 -182.5 26.5t-152 77t-105.5 132t-39 182.5q0 74 21 138.5t60.5 116t81.5 89.5t99 78q-59 79 -90 153t-31 160q0 145 88 243.5t250 98.5q154 0 255 -89.5t101 -248.5q0 -121 -59 -208.5t-164 -161.5l250 -303q58 103 98 256
l230 -62q-61 -237 -168 -385l213 -258h-303zM492 936q63 46 96 89.5t33 96.5q0 50 -27.5 76.5t-73.5 26.5q-47 0 -74.5 -29t-27.5 -82q0 -76 74 -178zM739 268l-284 340q0 1 -1 2t-1 2l-7 6q-81 -53 -125.5 -108.5t-44.5 -126.5q0 -80 59.5 -131t176.5 -51q130 0 227 67z
" />
    <glyph glyph-name="quotesingle" unicode="'" horiz-adv-x="452" 
d="M184 938l-61 496h207l-62 -496h-84z" />
    <glyph glyph-name="parenleft" unicode="(" horiz-adv-x="616" 
d="M307 666q0 -111 7.5 -207t30.5 -227t76.5 -265.5t133.5 -257.5h-129q-365 368 -365 957q0 588 365 956h129q-80 -123 -133.5 -257t-76.5 -265t-30.5 -227t-7.5 -207z" />
    <glyph glyph-name="parenright" unicode=")" horiz-adv-x="614" 
d="M309 666q0 111 -7.5 207t-30.5 227t-76.5 265t-133.5 257h129q365 -368 365 -956q0 -589 -365 -957h-129q80 123 133.5 257.5t76.5 265.5t30.5 227t7.5 207z" />
    <glyph glyph-name="asterisk" unicode="*" horiz-adv-x="794" 
d="M246 1034l-86 88l162 117l-199 -29v123l199 -30l-162 120l88 84l119 -159l-31 198h123l-31 -200l121 163l86 -86l-164 -120l201 30v-123l-201 31l164 -121l-86 -86l-121 164l31 -201h-123l31 199z" />
    <glyph glyph-name="plus" unicode="+" horiz-adv-x="1028" 
d="M123 582v225h268v278h246v-278h268v-225h-268v-279h-246v279h-268z" />
    <glyph glyph-name="comma" unicode="," horiz-adv-x="425" 
d="M61 133q0 67 42 108.5t110 41.5q69 0 110.5 -43.5t41.5 -120.5q0 -98 -62 -195.5t-131 -136.5l-55 23q55 84 65 174q-56 9 -88.5 48.5t-32.5 100.5z" />
    <glyph glyph-name="hyphen" unicode="-" horiz-adv-x="755" 
d="M123 440v185h510v-185h-510z" />
    <glyph glyph-name="period" unicode="." horiz-adv-x="425" 
d="M61 133q0 67 42 108.5t110 41.5t110 -41.5t42 -108.5q0 -69 -42 -110t-110 -41t-110 41t-42 110z" />
    <glyph glyph-name="slash" unicode="/" horiz-adv-x="884" 
d="M61 0l543 1434h219l-542 -1434h-220z" />
    <glyph glyph-name="zero" unicode="0" horiz-adv-x="1026" 
d="M31 717q0 381 127 560t356 179q111 0 197.5 -42t151 -129t98.5 -230.5t34 -337.5t-34 -337.5t-98.5 -231t-151 -129.5t-197.5 -42q-229 0 -356 179.5t-127 560.5zM287 717q0 -120 11 -208.5t36 -157t69.5 -103.5t108.5 -35q65 0 109.5 35t70 103.5t36.5 157t11 208.5
q0 121 -11 209.5t-36.5 157t-70 103t-109.5 34.5q-64 0 -108.5 -34.5t-69.5 -103t-36 -157.5t-11 -209z" />
    <glyph glyph-name="one" unicode="1" horiz-adv-x="522" 
d="M205 0v1085q-71 -44 -174 -53v211q179 46 223 191h207v-1434h-256z" />
    <glyph glyph-name="two" unicode="2" horiz-adv-x="991" 
d="M39 150q5 110 45 199.5t99 149t129 109.5t139.5 92.5t126 86.5t92 103.5t35.5 131.5q0 85 -47.5 142t-149.5 57q-157 0 -354 -160l-123 201q240 194 481 194q211 0 330 -125.5t119 -312.5q0 -93 -31.5 -172t-83.5 -136.5t-115.5 -106.5t-131.5 -92t-127 -83.5t-106 -89.5
t-65 -102h645v-236h-907v150z" />
    <glyph glyph-name="three" unicode="3" horiz-adv-x="1091" 
d="M258 897h37q234 3 337 43t103 135q0 66 -47 106t-151 40q-106 0 -197 -41.5t-186 -118.5l-123 201q49 40 92.5 68.5t107.5 60t141.5 48.5t164.5 17q215 0 334.5 -103.5t119.5 -271.5q0 -194 -172 -303q242 -132 242 -381q0 -190 -142.5 -306t-426.5 -116q-132 0 -239 28
t-220 87l94 215q177 -94 360 -94q162 0 240 53.5t78 149.5q0 42 -14.5 77.5t-42.5 60t-61.5 43.5t-78.5 30.5t-86 19.5t-92.5 11.5t-88.5 4.5t-83 1v235z" />
    <glyph glyph-name="four" unicode="4" horiz-adv-x="1054" 
d="M668 0v270h-637v187l686 977h207v-928h100v-236h-100v-270h-256zM354 506h314v448z" />
    <glyph glyph-name="five" unicode="5" horiz-adv-x="1058" 
d="M119 729l55 705h797v-236h-559l-21 -264q190 10 332 -39t223.5 -161.5t81.5 -276.5q0 -77 -18 -145.5t-59 -131t-103.5 -107.5t-158 -71.5t-214.5 -26.5q-122 0 -226.5 28t-217.5 87l94 215q177 -94 346 -94q85 0 146.5 21.5t93.5 58t46.5 76t14.5 84.5q0 125 -101.5 188
t-267.5 63q-93 0 -206 -22z" />
    <glyph glyph-name="six" unicode="6" horiz-adv-x="1087" 
d="M549 -18q-98 0 -178 23.5t-133 61t-92 93.5t-60.5 110.5t-34.5 122.5t-16.5 120t-3.5 112q0 186 34.5 333.5t90.5 239.5t132 153t153.5 85t160.5 24q224 0 385 -172l-151 -180q-28 31 -52.5 52t-74 43t-103.5 22q-70 0 -127.5 -33.5t-95 -92.5t-60.5 -134.5t-30 -163.5
q49 66 137.5 106.5t196.5 40.5q196 0 313 -132t117 -349q0 -219 -138.5 -352t-369.5 -133zM295 465q0 -117 67.5 -182.5t184.5 -65.5q118 0 186 65.5t68 182.5q0 119 -68 183.5t-186 64.5q-117 0 -184.5 -65t-67.5 -183z" />
    <glyph glyph-name="seven" unicode="7" horiz-adv-x="1038" 
d="M31 1198v236h977v-174l-637 -1260h-269l607 1198h-678z" />
    <glyph glyph-name="eight" unicode="8" horiz-adv-x="1161" 
d="M31 430q0 134 62 233t173 156q-131 88 -131 264q0 171 123 275t324 104t323.5 -103.5t122.5 -275.5q0 -178 -131 -266q110 -57 171.5 -158t61.5 -237q0 -213 -145.5 -327.5t-402.5 -114.5q-161 0 -284 50t-195 153t-72 247zM391 1069q0 -80 51 -121t138 -41q90 0 141 41
t51 121q0 78 -51 118t-141 40q-87 0 -138 -40.5t-51 -117.5zM276 440q0 -107 85.5 -166t218.5 -59q145 0 225 57t80 162q0 107 -81 172.5t-222 65.5q-142 0 -224 -64.5t-82 -167.5z" />
    <glyph glyph-name="nine" unicode="9" horiz-adv-x="1087" 
d="M539 1460q98 0 178 -23.5t133 -61.5t92 -94t60.5 -111.5t34.5 -125t16.5 -123t3.5 -116.5q0 -184 -30.5 -328t-81.5 -235.5t-124 -151.5t-151 -84t-168 -24q-241 0 -402 172l152 180q20 -22 38 -38t48.5 -36.5t70 -31.5t85.5 -11q78 0 136 34.5t92 96.5t51 133.5
t22 159.5q-49 -66 -137.5 -106.5t-196.5 -40.5q-196 0 -313 132t-117 349q0 219 138.5 352t369.5 133zM793 977q0 117 -67.5 182.5t-184.5 65.5q-118 0 -186 -65.5t-68 -182.5q0 -119 68 -183.5t186 -64.5q117 0 184.5 65t67.5 183z" />
    <glyph glyph-name="colon" unicode=":" horiz-adv-x="548" 
d="M123 971q0 67 41.5 108t109.5 41t110 -41t42 -108q0 -69 -42 -110.5t-110 -41.5t-109.5 41.5t-41.5 110.5zM123 133q0 67 41.5 108.5t109.5 41.5t110 -41.5t42 -108.5q0 -69 -42 -110t-110 -41t-109.5 41t-41.5 110z" />
    <glyph glyph-name="semicolon" unicode=";" horiz-adv-x="548" 
d="M123 971q0 67 41.5 108t109.5 41t110 -41t42 -108q0 -69 -42 -110.5t-110 -41.5t-109.5 41.5t-41.5 110.5zM123 133q0 67 41.5 108.5t109.5 41.5q69 0 110.5 -43.5t41.5 -120.5q0 -98 -62 -195.5t-131 -136.5l-55 23q56 86 66 174q-56 9 -88.5 48.5t-32.5 100.5z" />
    <glyph glyph-name="less" unicode="&#x3c;" horiz-adv-x="1126" 
d="M123 797l881 432v-250l-601 -262l601 -262v-250l-881 432v160z" />
    <glyph glyph-name="equal" unicode="=" horiz-adv-x="1165" 
d="M123 815v205h919v-205h-919zM123 387v205h919v-205h-919z" />
    <glyph glyph-name="greater" unicode="&#x3e;" horiz-adv-x="1126" 
d="M1004 637l-881 -432v250l600 262l-600 262v250l881 -432v-160z" />
    <glyph glyph-name="question" unicode="?" horiz-adv-x="952" 
d="M469 1223q-78 0 -138 -40.5t-98 -113.5l-172 148q150 239 424 239q101 0 180.5 -33.5t127.5 -89.5t73 -123t25 -139q0 -64 -20.5 -120.5t-53.5 -99.5t-73 -84t-79.5 -82.5t-72.5 -86.5t-53.5 -105t-20.5 -128h-133q0 77 14.5 143.5t38 114.5t51.5 91t56 80t51.5 72.5
t38 78.5t14.5 89q0 81 -44 135t-136 54zM301 133q0 67 42 108.5t110 41.5t109.5 -41.5t41.5 -108.5q0 -69 -41.5 -110t-109.5 -41t-110 41t-42 110z" />
    <glyph glyph-name="at" unicode="@" horiz-adv-x="1742" 
d="M1223 -129q-154 -68 -351 -68q-185 0 -342 62t-266.5 172.5t-171 268t-61.5 343.5q0 247 105.5 440t297 299.5t438.5 106.5q184 0 341 -62t266.5 -173t171 -268.5t61.5 -342.5q0 -119 -22.5 -214t-58 -154.5t-84 -99.5t-97.5 -56t-100 -16q-126 0 -211 88.5t-82 205.5
h-10q-25 -45 -60 -76t-74 -46.5t-73.5 -21.5t-69.5 -5q-48 1 -94.5 13.5t-92 40.5t-79 69t-54 103t-18.5 138q3 138 75.5 236.5t195 146.5t282.5 48q137 0 275 -33l-46 -535q-5 -61 24.5 -100t82.5 -39q18 0 33.5 4.5t37.5 23t37 49.5t26 90.5t11 139.5q0 276 -162.5 443.5
t-431.5 167.5q-271 0 -433.5 -167.5t-162.5 -443.5t162.5 -443t433.5 -167q150 0 256 49zM680 631q-4 -43 9 -76t36 -51t47.5 -26.5t48.5 -8.5q22 0 45 7.5t49 24.5t44 52.5t22 85.5l14 174q-40 4 -81 3.5t-81.5 -13.5t-73 -33t-54 -56t-25.5 -83z" />
    <glyph glyph-name="A" unicode="A" horiz-adv-x="1251" 
d="M0 0l492 1434h268l491 -1434h-268l-119 379h-477l-119 -379h-268zM461 614h327l-163 521z" />
    <glyph glyph-name="B" unicode="B" horiz-adv-x="1263" 
d="M61 0v1434h689q173 0 276.5 -105.5t103.5 -273.5q0 -196 -145 -273q111 -36 179.5 -127.5t68.5 -234.5q0 -187 -116 -303.5t-310 -116.5h-746zM717 881q71 0 114 43.5t43 113.5q0 73 -43 116.5t-114 43.5h-400v-317h400zM774 236q91 0 147 55.5t56 146.5q0 93 -56 150
t-147 57h-457v-409h457z" />
    <glyph glyph-name="C" unicode="C" horiz-adv-x="1363" 
d="M31 717q0 337 195.5 540t527.5 203q371 0 579 -260l-209 -143q-136 168 -370 168q-220 0 -343.5 -136.5t-123.5 -371.5t123.5 -371.5t343.5 -136.5q234 0 370 168l209 -144q-208 -260 -579 -260q-332 0 -527.5 203.5t-195.5 540.5z" />
    <glyph glyph-name="D" unicode="D" horiz-adv-x="1325" 
d="M61 0v1434h543q317 0 503.5 -193.5t186.5 -515.5q0 -333 -185.5 -529t-504.5 -196h-543zM317 236h263q213 0 335.5 130t122.5 347q0 224 -122 354.5t-336 130.5h-263v-962z" />
    <glyph glyph-name="E" unicode="E" horiz-adv-x="1067" 
d="M61 0v1434h975v-236h-719v-326h592v-235h-592v-404h719v-235z" />
    <glyph glyph-name="F" unicode="F" horiz-adv-x="1067" 
d="M61 0v1434h975v-236h-719v-326h592v-235h-592v-637h-256z" />
    <glyph glyph-name="G" unicode="G" horiz-adv-x="1363" 
d="M31 717q0 337 195.5 540t527.5 203q371 0 579 -260l-209 -143q-136 168 -370 168q-220 0 -343.5 -136.5t-123.5 -371.5t123.5 -371.5t343.5 -136.5q181 0 301 90v246h-301v235h557v-573q-87 -108 -230 -171t-327 -63q-332 0 -527.5 203.5t-195.5 540.5z" />
    <glyph glyph-name="H" unicode="H" horiz-adv-x="1261" 
d="M61 0v1434h256v-592h627v592h256v-1434h-256v606h-627v-606h-256z" />
    <glyph glyph-name="I" unicode="I" horiz-adv-x="378" 
d="M61 0v1434h256v-1434h-256z" />
    <glyph glyph-name="J" unicode="J" horiz-adv-x="1198" 
d="M580 -27q-248 0 -397.5 144t-149.5 389l-2 82h258v-101q0 -130 79.5 -204t213.5 -74q138 0 218.5 73.5t80.5 204.5v711h-201v236h457v-928q0 -245 -149.5 -389t-397.5 -144h-10z" />
    <glyph glyph-name="K" unicode="K" horiz-adv-x="1243" 
d="M61 0v1434h256v-646l570 646h319l-569 -646l575 -788h-299l-440 604l-156 -176v-428h-256z" />
    <glyph glyph-name="L" unicode="L" horiz-adv-x="1040" 
d="M61 0v1434h256v-1198h693v-236h-949z" />
    <glyph glyph-name="M" unicode="M" horiz-adv-x="1550" 
d="M61 0v1434h297l418 -1092l416 1092h297v-1434h-256v879l-332 -871l2 -8h-256l2 8l-332 871v-879h-256z" />
    <glyph glyph-name="N" unicode="N" horiz-adv-x="1202" 
d="M864 0l-547 979v-979h-256v1434h277l547 -979v979h256v-1434h-277z" />
    <glyph glyph-name="O" unicode="O" horiz-adv-x="1509" 
d="M31 717q0 337 195.5 540t527.5 203q333 0 529 -203.5t196 -539.5q0 -223 -87.5 -392t-252.5 -261.5t-385 -92.5t-384.5 92.5t-251.5 261.5t-87 392zM287 717q0 -236 123.5 -373t343.5 -137q219 0 344 137t125 373q0 234 -125 371t-344 137q-220 0 -343.5 -136.5
t-123.5 -371.5z" />
    <glyph glyph-name="P" unicode="P" horiz-adv-x="1263" 
d="M61 0v1434h650q235 0 378.5 -144t143.5 -379q0 -242 -143 -387t-379 -145h-394v-379h-256zM688 614q130 0 209.5 79t79.5 210q0 135 -79 215t-210 80h-371v-584h371z" />
    <glyph glyph-name="Q" unicode="Q" horiz-adv-x="1542" 
d="M31 727q0 336 195 534.5t528 198.5q334 0 529.5 -199t195.5 -534q0 -315 -179 -491h211v-236h-757q-335 0 -529 195t-194 532zM287 727q0 -234 122.5 -362.5t344.5 -128.5q221 0 345 128.5t124 362.5q0 233 -124.5 365.5t-344.5 132.5q-221 0 -344 -132t-123 -366z" />
    <glyph glyph-name="R" unicode="R" horiz-adv-x="1271" 
d="M61 0v1434h666q228 0 367 -141t139 -375q0 -166 -76 -288.5t-211 -178.5l295 -451h-303l-268 410h-353v-410h-256zM317 645h385q125 0 200 76t75 203q0 124 -75 199t-200 75h-385v-553z" />
    <glyph glyph-name="S" unicode="S" horiz-adv-x="1118" 
d="M1087 416q0 -196 -128.5 -317.5t-378.5 -121.5q-177 0 -315.5 59t-233.5 150l162 176q176 -149 385 -149q71 0 122.5 15.5t79 43t39.5 58.5t12 67q0 54 -27 95t-73.5 66t-106 45t-125.5 37t-132 36.5t-125.5 49.5t-106 70t-73.5 103t-27 145q0 185 130 298.5t367 113.5
q158 0 294 -52t239 -140l-150 -187q-179 144 -380 144q-123 0 -183.5 -43.5t-60.5 -112.5q0 -46 27 -80t73.5 -55.5t106 -38.5t125.5 -34.5t132 -38t125.5 -54t106 -77.5t73.5 -113.5t27 -157.5z" />
    <glyph glyph-name="T" unicode="T" horiz-adv-x="1175" 
d="M459 0v1198h-428v236h1114v-236h-430v-1198h-256z" />
    <glyph glyph-name="U" unicode="U" horiz-adv-x="1267" 
d="M629 -27q-261 0 -414.5 143.5t-153.5 389.5v928h256v-947q0 -132 83 -205t231 -73q152 0 235.5 73t83.5 205v947h256v-928q0 -246 -153 -389.5t-414 -143.5h-10z" />
    <glyph glyph-name="V" unicode="V" horiz-adv-x="1161" 
d="M709 0h-256l-453 1434h264l318 -1022l315 1022h264z" />
    <glyph glyph-name="W" unicode="W" horiz-adv-x="1880" 
d="M453 0l-453 1434h264l318 -1022l315 1022h264l-90 -285l229 -737l316 1022h264l-453 -1434h-256l-231 733l-231 -733h-256z" />
    <glyph glyph-name="X" unicode="X" horiz-adv-x="1236" 
d="M31 1434h282l305 -500l306 500h282l-438 -717l438 -717h-282l-306 500l-305 -500h-282l438 717z" />
    <glyph glyph-name="Y" unicode="Y" horiz-adv-x="1210" 
d="M0 1434h268l338 -719l336 719h268l-477 -1004v-430h-256v430z" />
    <glyph glyph-name="Z" unicode="Z" horiz-adv-x="1064" 
d="M31 1198v236h1003v-174l-676 -1024h676v-236h-1003v174l676 1024h-676z" />
    <glyph glyph-name="bracketleft" unicode="[" horiz-adv-x="614" 
d="M492 -147h-369v1720h369v-131h-134v-1458h134v-131z" />
    <glyph glyph-name="backslash" unicode="\" horiz-adv-x="884" 
d="M823 0h-219l-543 1434h220z" />
    <glyph glyph-name="bracketright" unicode="]" horiz-adv-x="614" 
d="M123 1573h369v-1720h-369v131h133v1458h-133v131z" />
    <glyph glyph-name="asciicircum" unicode="^" horiz-adv-x="948" 
d="M575 1434l310 -902h-199l-213 674l-211 -674h-199l310 902h202z" />
    <glyph glyph-name="underscore" unicode="_" horiz-adv-x="827" 
d="M0 -352v211h827v-211h-827z" />
    <glyph glyph-name="grave" unicode="`" horiz-adv-x="415" 
d="M354 1122h-84q-65 48 -126 129.5t-83 167.5h168q6 -65 40.5 -146t84.5 -151z" />
    <glyph glyph-name="a" unicode="a" horiz-adv-x="1150" 
d="M559 1038q238 0 384.5 -146t146.5 -384v-508h-246v98q-40 -51 -118 -83.5t-185 -32.5q-224 0 -367 147t-143 383t146 381t382 145zM844 510q0 141 -77 222t-206 81q-130 0 -207.5 -81t-77.5 -222t77.5 -222t207.5 -81q129 0 206 81t77 222z" />
    <glyph glyph-name="b" unicode="b" horiz-adv-x="1153" 
d="M63 1434h246v-510q39 51 117.5 83.5t183.5 32.5q226 0 369 -147t143 -383t-145 -381t-379 -145q-112 0 -209.5 36t-170 102.5t-114 166.5t-41.5 221v924zM877 512q0 141 -77.5 222t-207.5 81q-129 0 -206 -81t-77 -222t77 -222t206 -81q130 0 207.5 81t77.5 222z" />
    <glyph glyph-name="c" unicode="c" horiz-adv-x="1105" 
d="M276 510q0 -141 77 -222t206 -81q93 0 160.5 43t99.5 121h256q-42 -180 -178.5 -284.5t-335.5 -104.5q-238 0 -384 146t-146 384q0 236 146 381t384 145q198 0 335 -103.5t177 -279.5h-256q-32 75 -99 116.5t-159 41.5q-129 0 -206 -81t-77 -222z" />
    <glyph glyph-name="d" unicode="d" horiz-adv-x="1153" 
d="M846 1434h246v-924q0 -241 -152.5 -383.5t-384.5 -142.5t-377 145t-145 381t143 383t367 147q105 0 184.5 -32.5t118.5 -83.5v510zM279 512q0 -141 76.5 -222t205.5 -81q130 0 207.5 81t77.5 222t-77.5 222t-207.5 81q-129 0 -205.5 -81t-76.5 -222z" />
    <glyph glyph-name="e" unicode="e" 
d="M305 655h514q-32 75 -99 116.5t-159 41.5q-90 0 -157 -41.5t-99 -116.5zM561 207q157 0 232 110h268q-51 -157 -182 -246t-316 -89q-238 0 -384 146t-146 384q0 236 146 381t384 145t383.5 -145t145.5 -381q0 -15 -5 -82h-800q20 -106 92.5 -164.5t181.5 -58.5z" />
    <glyph glyph-name="f" unicode="f" horiz-adv-x="651" 
d="M618 1448v-225q-126 0 -189.5 -47t-76.5 -152h232v-225h-234v-799h-246v799h-102v225h104q17 207 147.5 315.5t364.5 108.5z" />
    <glyph glyph-name="g" unicode="g" horiz-adv-x="1150" 
d="M1090 510v-469q0 -204 -141 -333.5t-371 -129.5q-151 0 -274.5 59.5t-205.5 163.5l201 142q113 -140 281 -140q124 0 194 66t70 172v59q-40 -51 -118 -83.5t-185 -32.5q-224 0 -367 147t-143 383t146 381t382 145q238 0 384.5 -146t146.5 -384zM844 512q0 141 -77 222
t-206 81q-130 0 -207.5 -81t-77.5 -222t77.5 -222t207.5 -81q129 0 206 81t77 222z" />
    <glyph glyph-name="h" unicode="h" horiz-adv-x="1064" 
d="M307 1434v-482q97 90 258 90q88 0 162.5 -28t124.5 -73t85 -102.5t51 -115.5t16 -113v-610h-246v604q0 103 -65 157t-161 54t-160.5 -54t-64.5 -157v-604h-246v1434h246z" />
    <glyph glyph-name="i" unicode="i" horiz-adv-x="368" 
d="M49 1321q0 56 39 95.5t96 39.5t96 -39.5t39 -95.5q0 -58 -39 -97.5t-96 -39.5t-96 39.5t-39 97.5zM61 0v1024h246v-1024h-246z" />
    <glyph glyph-name="j" unicode="j" horiz-adv-x="483" 
d="M143 1319q0 61 43 104t103 43q61 0 103 -42.5t42 -104.5t-42 -105t-103 -43q-60 0 -103 43.5t-43 104.5zM166 -88v1112h246v-1124q0 -410 -373 -410q-27 0 -39 2v225q166 0 166 195z" />
    <glyph glyph-name="k" unicode="k" horiz-adv-x="1093" 
d="M61 0v1434h246v-1039l463 629h293l-379 -512l371 -512h-291l-225 313l-232 -313h-246z" />
    <glyph glyph-name="l" unicode="l" horiz-adv-x="368" 
d="M61 0v1434h246v-1434h-246z" />
    <glyph glyph-name="m" unicode="m" horiz-adv-x="1761" 
d="M532 1042q237 0 349 -163q112 163 348 163q97 0 178 -28t134 -72.5t90 -102.5t53 -115.5t16 -113.5v-610h-246v604q0 103 -64.5 157t-160.5 54t-160.5 -54t-64.5 -157v-604h-246v604q0 103 -65 157t-161 54t-160.5 -54t-64.5 -157v-604h-246v610q0 56 16 113.5t53 115.5
t90 102.5t134 72.5t178 28z" />
    <glyph glyph-name="n" unicode="n" horiz-adv-x="1064" 
d="M532 1042q97 0 178.5 -28t134.5 -72.5t90 -102.5t53 -115.5t16 -113.5v-610h-246v604q0 103 -65 157t-161 54t-160.5 -54t-64.5 -157v-604h-246v610q0 56 16 113.5t53 115.5t90 102.5t134 72.5t178 28z" />
    <glyph glyph-name="o" unicode="o" 
d="M33 512q0 236 146 381t384 145t383.5 -145t145.5 -381q0 -238 -145.5 -384t-383.5 -146t-384 146t-146 384zM279 510q0 -141 76.5 -222t205.5 -81q130 0 207.5 81t77.5 222t-77.5 222t-207.5 81q-129 0 -205.5 -81t-76.5 -222z" />
    <glyph glyph-name="p" unicode="p" horiz-adv-x="1153" 
d="M309 -410h-246v924q0 121 41.5 221t114 166.5t170 102.5t209.5 36q234 0 379 -145t145 -381t-143 -383t-369 -147q-105 0 -183.5 32.5t-117.5 83.5v-510zM877 512q0 141 -77.5 222t-207.5 81q-129 0 -206 -81t-77 -222t77 -222t206 -81q130 0 207.5 81t77.5 222z" />
    <glyph glyph-name="q" unicode="q" horiz-adv-x="1153" 
d="M1092 -410h-246v510q-39 -51 -118.5 -83.5t-184.5 -32.5q-224 0 -367 147t-143 383t145 381t377 145t384.5 -142.5t152.5 -383.5v-924zM279 512q0 -141 76.5 -222t205.5 -81q130 0 207.5 81t77.5 222t-77.5 222t-207.5 81q-129 0 -205.5 -81t-76.5 -222z" />
    <glyph glyph-name="r" unicode="r" horiz-adv-x="602" 
d="M61 573q0 229 135 349t373 120v-225q-125 0 -193.5 -61.5t-68.5 -182.5v-573h-246v573z" />
    <glyph glyph-name="s" unicode="s" horiz-adv-x="880" 
d="M293 748q0 -30 30.5 -51t80 -35t109 -28.5t118.5 -38.5t108.5 -57.5t80 -92t30.5 -136.5q0 -153 -109.5 -237t-289.5 -84q-77 0 -147 15.5t-122.5 41.5t-87.5 49t-63 49l131 193q63 -60 140.5 -91.5t154.5 -31.5q66 0 106.5 22.5t40.5 65.5q0 31 -24 54t-63 36.5t-89 28
t-102.5 27.5t-102.5 37.5t-89 55.5t-63 83.5t-24 119.5q0 140 99.5 218.5t273.5 78.5q237 0 426 -155l-131 -191q-147 121 -299 121q-59 0 -91 -18t-32 -49z" />
    <glyph glyph-name="t" unicode="t" horiz-adv-x="610" 
d="M578 211v-225q-252 0 -383.5 124t-131.5 361v963h246v-410h234v-225h-234v-326q0 -140 62.5 -201t206.5 -61z" />
    <glyph glyph-name="u" unicode="u" horiz-adv-x="1064" 
d="M532 -18q-97 0 -178 28t-134 72.5t-90 102.5t-53 115.5t-16 113.5v610h246v-604q0 -102 64.5 -156.5t160.5 -54.5t161 54.5t65 156.5v604h246v-610q0 -56 -16 -113.5t-53 -115.5t-90 -102.5t-134.5 -72.5t-178.5 -28z" />
    <glyph glyph-name="v" unicode="v" horiz-adv-x="1028" 
d="M387 0l-387 1024h264l250 -694l250 694h264l-387 -1024h-254z" />
    <glyph glyph-name="w" unicode="w" horiz-adv-x="1642" 
d="M387 0l-387 1024h264l250 -694l250 694h264l-76 -201l176 -493l250 694h264l-387 -1024h-254l-180 479l-180 -479h-254z" />
    <glyph glyph-name="x" unicode="x" horiz-adv-x="1028" 
d="M369 512l-338 512h282l201 -303l201 303h282l-338 -512l338 -512h-282l-201 303l-201 -303h-282z" />
    <glyph glyph-name="y" unicode="y" horiz-adv-x="1003" 
d="M352 27l-352 997h256l246 -709l246 709h256l-363 -1024q-63 -180 -66 -188q-68 -171 -165 -244q-100 -74 -256 -74v225q50 0 95.5 29t73 74t38.5 99.5t-9 105.5z" />
    <glyph glyph-name="z" unicode="z" horiz-adv-x="880" 
d="M31 799v225h819v-164l-475 -635h475v-225h-819v164l477 635h-477z" />
    <glyph glyph-name="braceleft" unicode="{" horiz-adv-x="698" 
d="M637 1573v-131h-49q-52 0 -68 -26.5t-16 -90.5v-356q0 -186 -98 -256q98 -70 98 -256v-357q0 -64 16 -90t68 -26h49v-131h-133q-112 0 -174 61t-62 186v340q0 40 -2.5 64.5t-14 52t-33 42t-61 24.5t-96.5 10v160q48 0 83 6t57.5 19t36 27.5t20 39t8.5 46t2 54.5v340
q0 125 62 186.5t174 61.5h133z" />
    <glyph glyph-name="bar" unicode="|" horiz-adv-x="968" 
d="M600 -512v2048h246v-2048h-246z" />
    <glyph glyph-name="braceright" unicode="}" horiz-adv-x="698" 
d="M61 -147v131h50q52 0 68 26t16 90v357q0 186 98 256q-98 70 -98 256v356q0 64 -16 90.5t-68 26.5h-50v131h134q112 0 173.5 -61t61.5 -187v-340q0 -33 2 -54.5t8.5 -46t20 -39t36 -27.5t57.5 -19t83 -6v-160q-57 0 -96.5 -10t-61 -24.5t-33 -42t-14 -52t-2.5 -64.5v-340
q0 -125 -61.5 -186t-173.5 -61h-134z" />
    <glyph glyph-name="asciitilde" unicode="~" horiz-adv-x="954" 
d="M63 614q-6 70 18 135t83 110.5t143 45.5q44 0 85.5 -13.5t74.5 -32t65 -37.5t69.5 -32.5t76.5 -13.5q106 0 117 94h96q6 -70 -17.5 -135t-82 -110t-140.5 -45q-54 0 -106 20.5t-87.5 45t-84 45t-94.5 20.5q-108 0 -119 -97h-97z" />
    <glyph glyph-name="exclamdown" unicode="&#xa1;" horiz-adv-x="548" 
d="M334 707q11 -137 31.5 -343t33 -366.5t17.5 -343.5h-281q5 183 17.5 343.5t33 366.5t31.5 343h117zM426 954q0 -67 -42 -108t-110 -41t-109.5 41t-41.5 108q0 69 41.5 110.5t109.5 41.5t110 -41.5t42 -110.5z" />
    <glyph glyph-name="cent" unicode="&#xa2;" horiz-adv-x="1167" 
d="M391 735q0 -141 77 -222t206 -81q93 0 160.5 43t99.5 121h256q-38 -165 -156.5 -267.5t-294.5 -119.5v-209h-155v213q-200 28 -319.5 169.5t-119.5 354.5t119 352.5t320 167.5v213h155v-208q174 -17 293 -118t156 -263h-256q-32 75 -99 116t-159 41q-129 0 -206 -81
t-77 -222z" />
    <glyph glyph-name="sterling" unicode="&#xa3;" horiz-adv-x="1132" 
d="M1071 236v-236h-948v127q104 54 148 125.5t44 185.5v189h-106v153h106v279q0 41 6 81.5t20.5 89.5t43 89.5t69 75t104.5 54t144 19.5q220 0 369 -163l-127 -162q-3 4 -9.5 11t-27 24t-42.5 30t-56.5 24t-69.5 11q-79 0 -123.5 -49.5t-44.5 -134.5v-279h334v-153h-334
v-170q0 -125 -49 -221h549z" />
    <glyph glyph-name="currency" unicode="&#xa4;" horiz-adv-x="1007" 
d="M504 1065q99 0 178 -45l141 141l121 -121l-141 -141q41 -74 41 -176t-43 -178l143 -144l-121 -120l-145 145q-76 -43 -174 -43q-102 0 -176 41l-144 -143l-121 120l144 144q-45 79 -45 178q0 100 43 176l-142 141l121 121l140 -139q76 43 180 43zM504 895q-82 0 -127 -45
t-45 -127q0 -80 45.5 -125t126.5 -45q80 0 125 45.5t45 124.5q0 81 -45 126.5t-125 45.5z" />
    <glyph glyph-name="yen" unicode="&#xa5;" horiz-adv-x="1333" 
d="M61 1434h269l338 -719l336 719h268l-367 -772h162v-154h-236l-36 -78v-59h272v-154h-272v-217h-256v217h-271v154h271v59l-37 78h-234v154h160z" />
    <glyph glyph-name="brokenbar" unicode="&#xa6;" horiz-adv-x="1128" 
d="M600 784v752h246v-752h-246zM600 -512v752h246v-752h-246z" />
    <glyph glyph-name="section" unicode="&#xa7;" horiz-adv-x="1003" 
d="M324 1221q0 -27 26.5 -47t70 -32t99 -26.5t113.5 -29t113.5 -40.5t99 -59.5t70 -88t26.5 -124.5q0 -145 -108 -229q108 -84 108 -221q0 -150 -111.5 -233t-298.5 -83q-152 0 -281 50.5t-190 105.5l132 192q61 -58 158.5 -90.5t187.5 -32.5q72 0 114.5 22t42.5 64
q0 32 -26.5 55t-70 36.5t-99 29t-113.5 29t-113.5 38.5t-99 57t-70 85t-26.5 121q0 151 121 227q-121 79 -121 224q0 137 101 213.5t284 76.5q146 0 272 -46t203 -109l-131 -191q-75 62 -172 91.5t-180 29.5q-64 0 -97.5 -17.5t-33.5 -47.5zM324 778q0 -31 27 -54.5
t67.5 -35.5t77.5 -18t67 -6q62 0 97.5 27t35.5 57t-39.5 55.5t-95 39t-108.5 13.5q-71 0 -100 -24t-29 -54z" />
    <glyph glyph-name="dieresis" unicode="&#xa8;" horiz-adv-x="792" 
d="M61 1249q0 68 42.5 110t111.5 42t112.5 -42.5t43.5 -109.5q0 -69 -43.5 -111t-112.5 -42t-111.5 42t-42.5 111zM422 1249q0 68 42 110t111 42t112.5 -42.5t43.5 -109.5q0 -69 -43.5 -111t-112.5 -42t-111 42t-42 111z" />
    <glyph glyph-name="copyright" unicode="&#xa9;" horiz-adv-x="1607" 
d="M1546 733q0 -330 -206 -535.5t-537 -205.5q-163 0 -301 54t-235 151t-151.5 235t-54.5 301q0 331 206 536.5t536 205.5q219 0 388 -93t262 -261.5t93 -387.5zM1409 733q0 275 -165.5 440.5t-440.5 165.5t-440.5 -165.5t-165.5 -440.5t165.5 -440.5t440.5 -165.5
t440.5 165.5t165.5 440.5zM381 717q0 198 114.5 317t309.5 119q219 0 342 -152l-123 -83q-82 98 -219 98q-128 0 -201.5 -81t-73.5 -218q0 -139 73 -219t202 -80q137 0 219 98l123 -84q-124 -153 -342 -153q-195 0 -309.5 120t-114.5 318z" />
    <glyph glyph-name="ordfeminine" unicode="&#xaa;" horiz-adv-x="860" 
d="M580 786v50q-72 -62 -189 -62q-147 0 -238.5 93t-91.5 245q0 150 91.5 243t238.5 93q119 0 189 -64v54h155v-652h-155zM219 1112q0 -91 48.5 -142.5t129.5 -51.5q84 0 133.5 51.5t49.5 142.5q0 90 -49.5 141.5t-133.5 51.5q-81 0 -129.5 -51.5t-48.5 -141.5z" />
    <glyph glyph-name="guillemotleft" unicode="&#xab;" horiz-adv-x="1114" 
d="M907 948l146 -125l-297 -262l297 -262l-146 -125l-428 387zM489 948l146 -125l-297 -262l297 -262l-146 -125l-428 387z" />
    <glyph glyph-name="logicalnot" unicode="&#xac;" horiz-adv-x="1200" 
d="M123 606v211h954v-547h-196v336h-758z" />
    <glyph glyph-name="registered" unicode="&#xae;" horiz-adv-x="1607" 
d="M1546 733q0 -330 -206 -535.5t-537 -205.5q-163 0 -301 54t-235 151t-151.5 235t-54.5 301q0 331 206 536.5t536 205.5q219 0 388 -93t262 -261.5t93 -387.5zM1409 733q0 275 -165.5 440.5t-440.5 165.5t-440.5 -165.5t-165.5 -440.5t165.5 -440.5t440.5 -165.5
t440.5 165.5t165.5 440.5zM655 340h-143v797h371q126 0 203 -78.5t77 -208.5q0 -93 -42.5 -161t-116.5 -99l163 -250h-168l-149 227h-195v-227zM655 698h213q70 0 112 42t42 114q0 68 -42.5 110t-111.5 42h-213v-308z" />
    <glyph glyph-name="macron" unicode="&#xaf;" horiz-adv-x="1073" 
d="M123 1507v211h827v-211h-827z" />
    <glyph glyph-name="degree" unicode="&#xb0;" horiz-adv-x="710" 
d="M354 1448q129 0 212 -82.5t83 -210.5t-83 -210.5t-212 -82.5q-128 0 -210.5 83t-82.5 210t82.5 210t210.5 83zM354 1298q-66 0 -103.5 -38t-37.5 -105q0 -66 37.5 -103.5t103.5 -37.5q67 0 105.5 37.5t38.5 103.5q0 67 -38 105t-106 38z" />
    <glyph glyph-name="plusminus" unicode="&#xb1;" horiz-adv-x="1175" 
d="M123 567v236h344v348h246v-348h340v-236h-340v-346h-246v346h-344z" />
    <glyph glyph-name="twosuperior" unicode="&#xb2;" horiz-adv-x="722" 
d="M68 881q3 71 28.5 129t63.5 96t83 70.5t89.5 60t81 55.5t59.5 66.5t23 85.5q0 54 -30 90.5t-97 36.5q-102 0 -228 -103l-80 129q154 125 312 125q136 0 212.5 -80.5t76.5 -201.5q0 -60 -20 -111t-53.5 -87.5t-74.5 -68.5t-85 -59.5t-82 -53.5t-68.5 -58t-42.5 -66h415
v-152h-583v97z" />
    <glyph glyph-name="threesuperior" unicode="&#xb3;" horiz-adv-x="796" 
d="M209 1362h24q153 2 221 28.5t68 88.5q0 42 -31.5 68t-99.5 26q-123 0 -250 -105l-80 131q69 58 146 94t184 36q141 0 219 -68t78 -178q0 -129 -110 -199q157 -85 157 -250q0 -123 -93.5 -198.5t-279.5 -75.5q-156 0 -301 74l62 141q117 -62 237 -62q207 0 207 134
q0 37 -16.5 65t-47.5 44.5t-64 27.5t-78 16t-77.5 6.5t-74.5 1.5v154z" />
    <glyph glyph-name="acute" unicode="&#xb4;" horiz-adv-x="415" 
d="M61 1122q50 70 84.5 151t40.5 146h168q-22 -86 -83 -167.5t-126 -129.5h-84z" />
    <glyph glyph-name="paragraph" unicode="&#xb6;" horiz-adv-x="1292" 
d="M707 -248v748h-72q-230 0 -371 141t-141 371v12q0 230 141 371t371 141h534v-1784h-143v1663h-176v-1663h-143z" />
    <glyph glyph-name="periodcentered" unicode="&#xb7;" horiz-adv-x="548" 
d="M123 713q0 67 41.5 108t109.5 41t110 -41t42 -108q0 -69 -42 -110.5t-110 -41.5t-109.5 41.5t-41.5 110.5z" />
    <glyph glyph-name="cedilla" unicode="&#xb8;" horiz-adv-x="507" 
d="M317 49l-84 -170q38 2 73 -5t67.5 -24.5t52.5 -52.5t20 -84q0 -94 -71.5 -138t-186.5 -44q-62 0 -127 12l19 80q190 -12 190 98q0 32 -15 53t-36 28.5t-42.5 11t-36.5 2.5l-15 -2l115 254z" />
    <glyph glyph-name="onesuperior" unicode="&#xb9;" horiz-adv-x="458" 
d="M170 784v693q-46 -27 -111 -33v135q113 28 144 121h131v-916h-164z" />
    <glyph glyph-name="ordmasculine" unicode="&#xba;" horiz-adv-x="843" 
d="M63 1102q0 161 99 259.5t262 98.5q161 0 258.5 -98.5t97.5 -259.5q0 -162 -97.5 -260.5t-258.5 -98.5q-163 0 -262 99t-99 260zM229 1102q0 -96 53 -151.5t140 -55.5q88 0 140 55.5t52 151.5t-52 150.5t-140 54.5q-87 0 -140 -54.5t-53 -150.5z" />
    <glyph glyph-name="guillemotright" unicode="&#xbb;" horiz-adv-x="1114" 
d="M207 174l-146 125l297 262l-297 262l146 125l428 -387zM625 174l-146 125l297 262l-297 262l146 125l428 -387z" />
    <glyph glyph-name="onequarter" unicode="&#xbc;" horiz-adv-x="1462" 
d="M172 518v692q-44 -26 -111 -32v135q113 28 144 121h131v-916h-164zM174 0l803 1434h219l-803 -1434h-219zM1174 0v172h-406v119l436 620h133v-589h64v-150h-64v-172h-163zM973 322h201v286z" />
    <glyph glyph-name="onehalf" unicode="&#xbd;" horiz-adv-x="1630" 
d="M172 518v692q-44 -26 -111 -32v135q113 28 144 121h131v-916h-164zM174 0l803 1434h219l-803 -1434h-219zM975 96q3 71 28.5 129t63.5 96t83 70.5t89.5 60t81 55.5t59.5 66.5t23 85.5q0 54 -30 90.5t-97 36.5q-103 0 -227 -102l-80 129q154 125 311 125q136 0 212.5 -81
t76.5 -202q0 -82 -38 -147t-95 -108t-116 -79.5t-110 -79.5t-67 -89h416v-152h-584v96z" />
    <glyph glyph-name="threequarters" unicode="&#xbe;" horiz-adv-x="1806" 
d="M209 1096h24q152 2 220.5 28t68.5 88q0 42 -31.5 68.5t-99.5 26.5q-123 0 -250 -105l-80 131q69 57 146 92t184 35q142 0 219.5 -66.5t77.5 -176.5q0 -130 -113 -199q160 -85 160 -250q0 -123 -93.5 -198.5t-279.5 -75.5q-158 0 -301 73l62 142q117 -62 237 -62
q207 0 207 133q0 37 -16.5 65t-47 45t-64 28t-78.5 16t-78 6.5t-74 1.5v154zM518 0l803 1434h219l-803 -1434h-219zM1518 0v172h-406v119l436 620h133v-589h64v-150h-64v-172h-163zM1317 322h201v286z" />
    <glyph glyph-name="questiondown" unicode="&#xbf;" horiz-adv-x="952" 
d="M483 -133q156 0 236 153l172 -147q-151 -240 -424 -240q-101 0 -180.5 33.5t-127.5 89.5t-73 123t-25 139q0 64 20.5 120.5t53.5 99.5t72.5 84t79.5 83t73 87t53.5 105t20.5 128h133q0 -88 -19.5 -164.5t-49 -126.5t-63.5 -99.5t-63.5 -88t-49 -88.5t-19.5 -103
q0 -81 44 -134.5t136 -53.5zM651 956q0 -67 -41.5 -108t-109.5 -41t-110 41t-42 108q0 69 42 110.5t110 41.5t109.5 -41.5t41.5 -110.5z" />
    <glyph glyph-name="Agrave" unicode="&#xc0;" horiz-adv-x="1251" 
d="M0 0l492 1434h268l491 -1434h-268l-119 379h-477l-119 -379h-268zM461 614h327l-163 521zM772 1532h-84q-65 48 -126 129.5t-83 167.5h168q6 -65 40.5 -146t84.5 -151z" />
    <glyph glyph-name="Aacute" unicode="&#xc1;" horiz-adv-x="1251" 
d="M0 0l492 1434h268l491 -1434h-268l-119 379h-477l-119 -379h-268zM461 614h327l-163 521zM479 1532q50 70 84.5 151t40.5 146h168q-22 -86 -83 -167.5t-126 -129.5h-84z" />
    <glyph glyph-name="Acircumflex" unicode="&#xc2;" horiz-adv-x="1251" 
d="M385 1511q50 70 84.5 151t40.5 146h231q6 -65 40.5 -146t84.5 -151h-84q-88 64 -157 177q-69 -114 -156 -177h-84zM0 0l492 1434h268l491 -1434h-268l-119 379h-477l-119 -379h-268zM461 614h327l-163 521z" />
    <glyph glyph-name="Atilde" unicode="&#xc3;" horiz-adv-x="1251" 
d="M326 1530q-6 109 40 189.5t136 80.5q39 0 77 -17t63 -37t59.5 -37t66.5 -17q82 0 90 94h70q6 -109 -40 -189.5t-136 -80.5q-38 0 -76 17t-64 38t-61 38t-68 17q-80 0 -88 -96h-69zM0 0l492 1434h268l491 -1434h-268l-119 379h-477l-119 -379h-268zM461 614h327l-163 521z
" />
    <glyph glyph-name="Adieresis" unicode="&#xc4;" horiz-adv-x="1251" 
d="M291 1659q0 68 42 109.5t111 41.5t112.5 -42t43.5 -109q0 -69 -43.5 -111.5t-112.5 -42.5t-111 42.5t-42 111.5zM651 1659q0 68 42.5 109.5t111.5 41.5t112.5 -42t43.5 -109q0 -69 -43.5 -111.5t-112.5 -42.5t-111.5 42.5t-42.5 111.5zM0 0l492 1434h268l491 -1434h-268
l-119 379h-477l-119 -379h-268zM461 614h327l-163 521z" />
    <glyph glyph-name="Aring" unicode="&#xc5;" horiz-adv-x="1251" 
d="M625 1821q72 0 117.5 -45.5t45.5 -116.5q0 -72 -45.5 -118t-117.5 -46q-71 0 -116.5 46t-45.5 118q0 71 45.5 116.5t116.5 45.5zM625 1733q-35 0 -55.5 -20t-20.5 -54q0 -35 20.5 -55.5t55.5 -20.5q37 0 57 20.5t20 55.5q0 34 -20.5 54t-56.5 20zM0 0l492 1434h268
l491 -1434h-268l-119 379h-477l-119 -379h-268zM461 614h327l-163 521z" />
    <glyph glyph-name="AE" unicode="&#xc6;" horiz-adv-x="1630" 
d="M625 0v379h-238l-119 -379h-268l492 1434h1107v-236h-718v-326h592v-235h-592v-404h718v-235zM625 1135l-164 -521h164v521z" />
    <glyph glyph-name="Ccedilla" unicode="&#xc7;" horiz-adv-x="1363" 
d="M31 717q0 337 195.5 540t527.5 203q371 0 579 -260l-209 -143q-136 168 -370 168q-220 0 -343.5 -136.5t-123.5 -371.5t123.5 -371.5t343.5 -136.5q234 0 370 168l209 -144q-208 -260 -579 -260q-31 0 -54 -12l-18 -35q38 2 73 -5t67.5 -24.5t52.5 -52.5t20 -84
q0 -94 -71.5 -138t-186.5 -44q-63 0 -127 12l18 80q191 -12 191 99q0 32 -15 53t-36.5 28.5t-43 10.5t-36.5 1l-15 -1l56 121q-279 38 -438.5 235t-159.5 500z" />
    <glyph glyph-name="Egrave" unicode="&#xc8;" horiz-adv-x="1067" 
d="M61 0v1434h975v-236h-719v-326h592v-235h-592v-404h719v-235zM680 1532h-84q-65 48 -126 129.5t-83 167.5h168q6 -65 40.5 -146t84.5 -151z" />
    <glyph glyph-name="Eacute" unicode="&#xc9;" horiz-adv-x="1067" 
d="M61 0v1434h975v-236h-719v-326h592v-235h-592v-404h719v-235zM387 1532q50 70 84.5 151t40.5 146h168q-22 -86 -83 -167.5t-126 -129.5h-84z" />
    <glyph glyph-name="Ecircumflex" unicode="&#xca;" horiz-adv-x="1067" 
d="M293 1511q50 70 84.5 151t40.5 146h231q6 -65 40.5 -146t84.5 -151h-84q-90 65 -158 177q-70 -116 -155 -177h-84zM61 0v1434h975v-236h-719v-326h592v-235h-592v-404h719v-235z" />
    <glyph glyph-name="Edieresis" unicode="&#xcb;" horiz-adv-x="1067" 
d="M199 1659q0 68 42 109.5t111 41.5t112.5 -42t43.5 -109q0 -69 -43.5 -111.5t-112.5 -42.5t-111 42.5t-42 111.5zM559 1659q0 68 42.5 109.5t111.5 41.5t112 -42t43 -109q0 -69 -43 -111.5t-112 -42.5t-111.5 42.5t-42.5 111.5zM61 0v1434h975v-236h-719v-326h592v-235
h-592v-404h719v-235z" />
    <glyph glyph-name="Igrave" unicode="&#xcc;" horiz-adv-x="378" 
d="M61 0v1434h256v-1434h-256zM336 1532h-84q-65 48 -126 129.5t-83 167.5h168q6 -65 40.5 -146t84.5 -151z" />
    <glyph glyph-name="Iacute" unicode="&#xcd;" horiz-adv-x="378" 
d="M61 0v1434h256v-1434h-256zM43 1532q50 70 84.5 151t40.5 146h168q-22 -86 -83 -167.5t-126 -129.5h-84z" />
    <glyph glyph-name="Icircumflex" unicode="&#xce;" horiz-adv-x="378" 
d="M-51 1511q50 70 84.5 151t40.5 146h231q6 -65 40.5 -146t84.5 -151h-84q-90 65 -158 177q-70 -116 -155 -177h-84zM61 0v1434h256v-1434h-256z" />
    <glyph glyph-name="Idieresis" unicode="&#xcf;" horiz-adv-x="378" 
d="M-145 1659q0 68 42 109.5t111 41.5t112.5 -42t43.5 -109q0 -69 -43.5 -111.5t-112.5 -42.5t-111 42.5t-42 111.5zM215 1659q0 68 42.5 109.5t111.5 41.5t112 -42t43 -109q0 -69 -43 -111.5t-112 -42.5t-111.5 42.5t-42.5 111.5zM61 0v1434h256v-1434h-256z" />
    <glyph glyph-name="Eth" unicode="&#xd0;" horiz-adv-x="1325" 
d="M61 0v543h-102v184h102v707h543q317 0 503.5 -193.5t186.5 -515.5q0 -333 -185.5 -529t-504.5 -196h-543zM317 236h263q213 0 335.5 130t122.5 347q0 224 -122 354.5t-336 130.5h-263v-471h152v-184h-152v-307z" />
    <glyph glyph-name="Ntilde" unicode="&#xd1;" horiz-adv-x="1202" 
d="M301 1530q-6 109 40 189.5t136 80.5q39 0 77 -17t63 -37t59.5 -37t66.5 -17q83 0 91 94h69q6 -109 -40 -189.5t-136 -80.5q-38 0 -76 17t-63.5 38t-60.5 38t-68 17q-80 0 -88 -96h-70zM864 0l-547 979v-979h-256v1434h277l547 -979v979h256v-1434h-277z" />
    <glyph glyph-name="Ograve" unicode="&#xd2;" horiz-adv-x="1509" 
d="M31 717q0 337 195.5 540t527.5 203q333 0 529 -203.5t196 -539.5q0 -223 -87.5 -392t-252.5 -261.5t-385 -92.5t-384.5 92.5t-251.5 261.5t-87 392zM287 717q0 -236 123.5 -373t343.5 -137q219 0 344 137t125 373q0 234 -125 371t-344 137q-220 0 -343.5 -136.5
t-123.5 -371.5zM901 1532h-84q-65 48 -126 129.5t-83 167.5h168q6 -65 40.5 -146t84.5 -151z" />
    <glyph glyph-name="Oacute" unicode="&#xd3;" horiz-adv-x="1509" 
d="M31 717q0 337 195.5 540t527.5 203q333 0 529 -203.5t196 -539.5q0 -223 -87.5 -392t-252.5 -261.5t-385 -92.5t-384.5 92.5t-251.5 261.5t-87 392zM287 717q0 -236 123.5 -373t343.5 -137q219 0 344 137t125 373q0 234 -125 371t-344 137q-220 0 -343.5 -136.5
t-123.5 -371.5zM608 1532q50 70 84.5 151t40.5 146h168q-22 -86 -83 -167.5t-126 -129.5h-84z" />
    <glyph glyph-name="Ocircumflex" unicode="&#xd4;" horiz-adv-x="1509" 
d="M514 1511q50 70 84.5 151t40.5 146h231q6 -65 40.5 -146t84.5 -151h-84q-88 64 -157 177q-69 -114 -156 -177h-84zM31 717q0 337 195.5 540t527.5 203q333 0 529 -203.5t196 -539.5q0 -223 -87.5 -392t-252.5 -261.5t-385 -92.5t-384.5 92.5t-251.5 261.5t-87 392z
M287 717q0 -236 123.5 -373t343.5 -137q219 0 344 137t125 373q0 234 -125 371t-344 137q-220 0 -343.5 -136.5t-123.5 -371.5z" />
    <glyph glyph-name="Otilde" unicode="&#xd5;" horiz-adv-x="1509" 
d="M455 1530q-6 109 40 189.5t136 80.5q39 0 77 -17t63 -37t59.5 -37t66.5 -17q82 0 90 94h70q6 -109 -40 -189.5t-136 -80.5q-38 0 -76 17t-64 38t-61 38t-68 17q-80 0 -88 -96h-69zM31 717q0 337 195.5 540t527.5 203q333 0 529 -203.5t196 -539.5q0 -223 -87.5 -392
t-252.5 -261.5t-385 -92.5t-384.5 92.5t-251.5 261.5t-87 392zM287 717q0 -236 123.5 -373t343.5 -137q219 0 344 137t125 373q0 234 -125 371t-344 137q-220 0 -343.5 -136.5t-123.5 -371.5z" />
    <glyph glyph-name="Odieresis" unicode="&#xd6;" horiz-adv-x="1509" 
d="M420 1659q0 68 42 109.5t111 41.5t112.5 -42t43.5 -109q0 -69 -43.5 -111.5t-112.5 -42.5t-111 42.5t-42 111.5zM780 1659q0 68 42.5 109.5t111.5 41.5t112.5 -42t43.5 -109q0 -69 -43.5 -111.5t-112.5 -42.5t-111.5 42.5t-42.5 111.5zM31 717q0 337 195.5 540t527.5 203
q333 0 529 -203.5t196 -539.5q0 -223 -87.5 -392t-252.5 -261.5t-385 -92.5t-384.5 92.5t-251.5 261.5t-87 392zM287 717q0 -236 123.5 -373t343.5 -137q219 0 344 137t125 373q0 234 -125 371t-344 137q-220 0 -343.5 -136.5t-123.5 -371.5z" />
    <glyph glyph-name="multiply" unicode="&#xd7;" horiz-adv-x="1126" 
d="M123 965l160 159l280 -280l281 280l160 -159l-281 -281l281 -281l-160 -159l-281 280l-280 -280l-160 159l280 281z" />
    <glyph glyph-name="Oslash" unicode="&#xd8;" horiz-adv-x="1509" 
d="M31 717q0 337 195.5 540t527.5 203q209 0 368 -84l41 58h219l-116 -160q103 -99 158 -241t55 -316q0 -223 -87.5 -392t-252.5 -261.5t-385 -92.5q-211 0 -367 84l-39 -55h-219l113 158q-102 99 -156.5 242t-54.5 317zM287 717q0 -218 104 -350l586 811q-96 47 -223 47
q-220 0 -343.5 -136.5t-123.5 -371.5zM1116 1067l-586 -813q96 -47 224 -47q219 0 344 137t125 373q0 215 -107 350z" />
    <glyph glyph-name="Ugrave" unicode="&#xd9;" horiz-adv-x="1267" 
d="M629 -27q-261 0 -414.5 143.5t-153.5 389.5v928h256v-947q0 -132 83 -205t231 -73q152 0 235.5 73t83.5 205v947h256v-928q0 -246 -153 -389.5t-414 -143.5h-10zM780 1532h-84q-65 48 -126 129.5t-83 167.5h168q6 -65 40.5 -146t84.5 -151z" />
    <glyph glyph-name="Uacute" unicode="&#xda;" horiz-adv-x="1267" 
d="M629 -27q-261 0 -414.5 143.5t-153.5 389.5v928h256v-947q0 -132 83 -205t231 -73q152 0 235.5 73t83.5 205v947h256v-928q0 -246 -153 -389.5t-414 -143.5h-10zM487 1532q50 70 84.5 151t40.5 146h168q-22 -86 -83 -167.5t-126 -129.5h-84z" />
    <glyph glyph-name="Ucircumflex" unicode="&#xdb;" horiz-adv-x="1267" 
d="M393 1511q50 70 84.5 151t40.5 146h232q6 -65 40 -146t84 -151h-83q-90 65 -158 177q-69 -114 -156 -177h-84zM629 -27q-261 0 -414.5 143.5t-153.5 389.5v928h256v-947q0 -132 83 -205t231 -73q152 0 235.5 73t83.5 205v947h256v-928q0 -246 -153 -389.5t-414 -143.5
h-10z" />
    <glyph glyph-name="Udieresis" unicode="&#xdc;" horiz-adv-x="1267" 
d="M299 1659q0 68 42.5 109.5t111.5 41.5t112 -42t43 -109q0 -69 -43 -111.5t-112 -42.5t-111.5 42.5t-42.5 111.5zM659 1659q0 68 42.5 109.5t111.5 41.5t112.5 -42t43.5 -109q0 -69 -43.5 -111.5t-112.5 -42.5t-111.5 42.5t-42.5 111.5zM629 -27q-261 0 -414.5 143.5
t-153.5 389.5v928h256v-947q0 -132 83 -205t231 -73q152 0 235.5 73t83.5 205v947h256v-928q0 -246 -153 -389.5t-414 -143.5h-10z" />
    <glyph glyph-name="Yacute" unicode="&#xdd;" horiz-adv-x="1210" 
d="M0 1434h268l338 -719l336 719h268l-477 -1004v-430h-256v430zM459 1532q50 70 84.5 151t40.5 146h168q-22 -86 -83 -167.5t-126 -129.5h-84z" />
    <glyph glyph-name="germandbls" unicode="&#xdf;" horiz-adv-x="1263" 
d="M61 864q0 256 156.5 413t413.5 157h119q173 0 276.5 -105.5t103.5 -273.5q0 -196 -145 -273q111 -36 179.5 -127.5t68.5 -234.5q0 -92 -34.5 -173.5t-97 -142t-154.5 -96t-202 -35.5q-153 0 -323 76v264q150 -104 293 -104q114 0 188 68t74 161t-56 150t-147 57h-352v236
h295q71 0 114 43.5t43 113.5q0 73 -43 116.5t-114 43.5h-55q-164 0 -254.5 -90t-90.5 -254v-854h-256v864z" />
    <glyph glyph-name="agrave" unicode="&#xe0;" horiz-adv-x="1150" 
d="M559 1038q238 0 384.5 -146t146.5 -384v-508h-246v98q-40 -51 -118 -83.5t-185 -32.5q-224 0 -367 147t-143 383t146 381t382 145zM844 510q0 141 -77 222t-206 81q-130 0 -207.5 -81t-77.5 -222t77.5 -222t207.5 -81q129 0 206 81t77 222zM723 1122h-84
q-65 48 -126 129.5t-83 167.5h168q6 -65 40.5 -146t84.5 -151z" />
    <glyph glyph-name="aacute" unicode="&#xe1;" horiz-adv-x="1150" 
d="M559 1038q238 0 384.5 -146t146.5 -384v-508h-246v98q-40 -51 -118 -83.5t-185 -32.5q-224 0 -367 147t-143 383t146 381t382 145zM844 510q0 141 -77 222t-206 81q-130 0 -207.5 -81t-77.5 -222t77.5 -222t207.5 -81q129 0 206 81t77 222zM430 1122q50 70 84.5 151
t40.5 146h168q-22 -86 -83 -167.5t-126 -129.5h-84z" />
    <glyph glyph-name="acircumflex" unicode="&#xe2;" horiz-adv-x="1150" 
d="M336 1102q50 70 84.5 151t40.5 146h231q6 -65 40.5 -146t84.5 -151h-84q-91 66 -158 176q-69 -114 -155 -176h-84zM559 1038q238 0 384.5 -146t146.5 -384v-508h-246v98q-40 -51 -118 -83.5t-185 -32.5q-224 0 -367 147t-143 383t146 381t382 145zM844 510q0 141 -77 222
t-206 81q-130 0 -207.5 -81t-77.5 -222t77.5 -222t207.5 -81q129 0 206 81t77 222z" />
    <glyph glyph-name="atilde" unicode="&#xe3;" horiz-adv-x="1150" 
d="M274 1120q-6 110 41 190.5t138 80.5q38 0 75.5 -17t63 -37.5t60 -37.5t67.5 -17q80 0 88 94h70q6 -109 -40.5 -189.5t-136.5 -80.5q-39 0 -76.5 17.5t-63 38t-60 38t-66.5 17.5q-81 0 -90 -97h-70zM559 1038q238 0 384.5 -146t146.5 -384v-508h-246v98
q-40 -51 -118 -83.5t-185 -32.5q-224 0 -367 147t-143 383t146 381t382 145zM844 510q0 141 -77 222t-206 81q-130 0 -207.5 -81t-77.5 -222t77.5 -222t207.5 -81q129 0 206 81t77 222z" />
    <glyph glyph-name="adieresis" unicode="&#xe4;" horiz-adv-x="1150" 
d="M242 1249q0 68 42 110t111 42t112.5 -42.5t43.5 -109.5q0 -69 -43.5 -111t-112.5 -42t-111 42t-42 111zM602 1249q0 68 42.5 110t111.5 42t112 -42t43 -110q0 -69 -43 -111t-112 -42t-111.5 42t-42.5 111zM559 1038q238 0 384.5 -146t146.5 -384v-508h-246v98
q-40 -51 -118 -83.5t-185 -32.5q-224 0 -367 147t-143 383t146 381t382 145zM844 510q0 141 -77 222t-206 81q-130 0 -207.5 -81t-77.5 -222t77.5 -222t207.5 -81q129 0 206 81t77 222z" />
    <glyph glyph-name="aring" unicode="&#xe5;" horiz-adv-x="1150" 
d="M575 1411q72 0 118 -45.5t46 -116.5q0 -72 -46 -118t-118 -46q-71 0 -116 46t-45 118q0 71 45.5 116.5t115.5 45.5zM575 1323q-35 0 -55 -20t-20 -54q0 -35 20 -55t55 -20q37 0 57.5 20t20.5 55q0 34 -21 54t-57 20zM559 1038q238 0 384.5 -146t146.5 -384v-508h-246v98
q-40 -51 -118 -83.5t-185 -32.5q-224 0 -367 147t-143 383t146 381t382 145zM844 510q0 141 -77 222t-206 81q-130 0 -207.5 -81t-77.5 -222t77.5 -222t207.5 -81q129 0 206 81t77 222z" />
    <glyph glyph-name="ae" unicode="&#xe6;" horiz-adv-x="1933" 
d="M559 1038q127 0 231.5 -44.5t176.5 -125.5q70 81 175 125.5t232 44.5q238 0 383.5 -145t145.5 -381q0 -15 -5 -82h-800q20 -106 92.5 -164.5t181.5 -58.5q157 0 232 110h268q-51 -157 -182 -246t-316 -89q-161 0 -284 69v-51h-246v98q-40 -51 -118 -83.5t-185 -32.5
q-224 0 -367 147t-143 383t146 381t382 145zM844 510q0 141 -77 222t-206 81q-130 0 -207.5 -81t-77.5 -222t77.5 -222t207.5 -81q129 0 206 81t77 222zM1116 655h514q-32 75 -99 116.5t-159 41.5q-90 0 -157 -41.5t-99 -116.5z" />
    <glyph glyph-name="ccedilla" unicode="&#xe7;" horiz-adv-x="1105" 
d="M276 510q0 -141 77 -222t206 -81q93 0 160.5 43t99.5 121h256q-42 -180 -178.5 -284.5t-335.5 -104.5q-13 0 -26 -15l-19 -35q38 2 73 -5t67.5 -24t52.5 -51.5t20 -82.5q0 -95 -71.5 -140t-186.5 -45q-57 0 -127 13l18 79q191 -12 191 101q0 31 -15 51.5t-36 28
t-42.5 10.5t-36.5 1l-15 -1l55 123q-197 29 -314.5 170t-117.5 352q0 236 146 381t384 145q198 0 335 -103.5t177 -279.5h-256q-32 75 -99 116.5t-159 41.5q-129 0 -206 -81t-77 -222z" />
    <glyph glyph-name="egrave" unicode="&#xe8;" 
d="M305 655h514q-32 75 -99 116.5t-159 41.5q-90 0 -157 -41.5t-99 -116.5zM561 207q157 0 232 110h268q-51 -157 -182 -246t-316 -89q-238 0 -384 146t-146 384q0 236 146 381t384 145t383.5 -145t145.5 -381q0 -15 -5 -82h-800q20 -106 92.5 -164.5t181.5 -58.5zM709 1122
h-84q-65 48 -126 129.5t-83 167.5h168q6 -65 40.5 -146t84.5 -151z" />
    <glyph glyph-name="eacute" unicode="&#xe9;" 
d="M305 655h514q-32 75 -99 116.5t-159 41.5q-90 0 -157 -41.5t-99 -116.5zM561 207q157 0 232 110h268q-51 -157 -182 -246t-316 -89q-238 0 -384 146t-146 384q0 236 146 381t384 145t383.5 -145t145.5 -381q0 -15 -5 -82h-800q20 -106 92.5 -164.5t181.5 -58.5zM416 1122
q50 70 84.5 151t40.5 146h168q-22 -86 -83 -167.5t-126 -129.5h-84z" />
    <glyph glyph-name="ecircumflex" unicode="&#xea;" 
d="M322 1102q50 70 84 151t40 146h232q6 -65 40.5 -146t84.5 -151h-84q-91 66 -158 176q-69 -114 -155 -176h-84zM305 655h514q-32 75 -99 116.5t-159 41.5q-90 0 -157 -41.5t-99 -116.5zM561 207q157 0 232 110h268q-51 -157 -182 -246t-316 -89q-238 0 -384 146t-146 384
q0 236 146 381t384 145t383.5 -145t145.5 -381q0 -15 -5 -82h-800q20 -106 92.5 -164.5t181.5 -58.5z" />
    <glyph glyph-name="edieresis" unicode="&#xeb;" 
d="M227 1249q0 68 42.5 110t111.5 42t112.5 -42.5t43.5 -109.5q0 -69 -43.5 -111t-112.5 -42t-111.5 42t-42.5 111zM588 1249q0 68 42 110t111 42t112.5 -42.5t43.5 -109.5q0 -69 -43.5 -111t-112.5 -42t-111 42t-42 111zM305 655h514q-32 75 -99 116.5t-159 41.5
q-90 0 -157 -41.5t-99 -116.5zM561 207q157 0 232 110h268q-51 -157 -182 -246t-316 -89q-238 0 -384 146t-146 384q0 236 146 381t384 145t383.5 -145t145.5 -381q0 -15 -5 -82h-800q20 -106 92.5 -164.5t181.5 -58.5z" />
    <glyph glyph-name="igrave" unicode="&#xec;" horiz-adv-x="368" 
d="M61 0v1024h246v-1024h-246zM332 1122h-84q-65 48 -126 129.5t-83 167.5h168q6 -65 40.5 -146t84.5 -151z" />
    <glyph glyph-name="iacute" unicode="&#xed;" horiz-adv-x="368" 
d="M61 0v1024h246v-1024h-246zM39 1122q50 70 84.5 151t40.5 146h168q-22 -86 -83 -167.5t-126 -129.5h-84z" />
    <glyph glyph-name="icircumflex" unicode="&#xee;" horiz-adv-x="368" 
d="M-57 1102q51 70 86 151t41 146h231q6 -65 40.5 -146t84.5 -151h-84q-91 66 -158 176q-69 -114 -155 -176h-86zM61 0v1024h246v-1024h-246z" />
    <glyph glyph-name="idieresis" unicode="&#xef;" horiz-adv-x="368" 
d="M-152 1249q0 68 43 110t113 42q69 0 112.5 -42.5t43.5 -109.5q0 -69 -43.5 -111t-112.5 -42q-70 0 -113 42t-43 111zM211 1249q0 68 42.5 110t111.5 42t112 -42t43 -110q0 -69 -43 -111t-112 -42t-111.5 42t-42.5 111zM61 0v1024h246v-1024h-246z" />
    <glyph glyph-name="ntilde" unicode="&#xf1;" horiz-adv-x="1064" 
d="M231 1120q-6 110 41 190.5t138 80.5q38 0 75.5 -17t63 -37.5t60 -37.5t67.5 -17q80 0 88 94h70q6 -109 -40.5 -189.5t-136.5 -80.5q-39 0 -76.5 17.5t-63 38t-60 38t-66.5 17.5q-81 0 -90 -97h-70zM532 1042q97 0 178.5 -28t134.5 -72.5t90 -102.5t53 -115.5t16 -113.5
v-610h-246v604q0 103 -65 157t-161 54t-160.5 -54t-64.5 -157v-604h-246v610q0 56 16 113.5t53 115.5t90 102.5t134 72.5t178 28z" />
    <glyph glyph-name="ograve" unicode="&#xf2;" 
d="M33 512q0 236 146 381t384 145t383.5 -145t145.5 -381q0 -238 -145.5 -384t-383.5 -146t-384 146t-146 384zM279 510q0 -141 76.5 -222t205.5 -81q130 0 207.5 81t77.5 222t-77.5 222t-207.5 81q-129 0 -205.5 -81t-76.5 -222zM709 1122h-84q-65 48 -126 129.5t-83 167.5
h168q6 -65 40.5 -146t84.5 -151z" />
    <glyph glyph-name="oacute" unicode="&#xf3;" 
d="M33 512q0 236 146 381t384 145t383.5 -145t145.5 -381q0 -238 -145.5 -384t-383.5 -146t-384 146t-146 384zM279 510q0 -141 76.5 -222t205.5 -81q130 0 207.5 81t77.5 222t-77.5 222t-207.5 81q-129 0 -205.5 -81t-76.5 -222zM416 1122q50 70 84.5 151t40.5 146h168
q-22 -86 -83 -167.5t-126 -129.5h-84z" />
    <glyph glyph-name="ocircumflex" unicode="&#xf4;" 
d="M322 1102q50 70 84 151t40 146h232q6 -65 40.5 -146t84.5 -151h-84q-91 66 -158 176q-69 -114 -155 -176h-84zM33 512q0 236 146 381t384 145t383.5 -145t145.5 -381q0 -238 -145.5 -384t-383.5 -146t-384 146t-146 384zM279 510q0 -141 76.5 -222t205.5 -81
q130 0 207.5 81t77.5 222t-77.5 222t-207.5 81q-129 0 -205.5 -81t-76.5 -222z" />
    <glyph glyph-name="otilde" unicode="&#xf5;" 
d="M262 1120q-6 110 40 190.5t136 80.5q39 0 77 -17t63.5 -37.5t60 -37.5t66.5 -17q82 0 90 94h69q6 -109 -40 -189.5t-136 -80.5q-38 0 -76 17.5t-63.5 38t-60.5 38t-68 17.5q-79 0 -88 -97h-70zM33 512q0 236 146 381t384 145t383.5 -145t145.5 -381q0 -238 -145.5 -384
t-383.5 -146t-384 146t-146 384zM279 510q0 -141 76.5 -222t205.5 -81q130 0 207.5 81t77.5 222t-77.5 222t-207.5 81q-129 0 -205.5 -81t-76.5 -222z" />
    <glyph glyph-name="odieresis" unicode="&#xf6;" 
d="M227 1249q0 68 42.5 110t111.5 42t112.5 -42.5t43.5 -109.5q0 -69 -43.5 -111t-112.5 -42t-111.5 42t-42.5 111zM588 1249q0 68 42 110t111 42t112.5 -42.5t43.5 -109.5q0 -69 -43.5 -111t-112.5 -42t-111 42t-42 111zM33 512q0 236 146 381t384 145t383.5 -145
t145.5 -381q0 -238 -145.5 -384t-383.5 -146t-384 146t-146 384zM279 510q0 -141 76.5 -222t205.5 -81q130 0 207.5 81t77.5 222t-77.5 222t-207.5 81q-129 0 -205.5 -81t-76.5 -222z" />
    <glyph glyph-name="divide" unicode="&#xf7;" horiz-adv-x="1171" 
d="M426 1030q0 67 42 108.5t110 41.5t109.5 -41.5t41.5 -108.5q0 -69 -41.5 -110t-109.5 -41t-110 41t-42 110zM123 567v236h909v-236h-909zM426 344q0 67 42 108.5t110 41.5t109.5 -41.5t41.5 -108.5q0 -69 -41.5 -110t-109.5 -41t-110 41t-42 110z" />
    <glyph glyph-name="oslash" unicode="&#xf8;" 
d="M279 510q0 -127 59 -201l364 473q-64 31 -141 31q-129 0 -205.5 -81t-76.5 -222zM786 713l-366 -473q59 -33 141 -33q130 0 207.5 81t77.5 222q0 125 -60 203zM33 512q0 236 146 381t384 145q163 0 283 -69l41 53h137l-90 -117q76 -70 117 -170.5t41 -222.5
q0 -238 -145.5 -384t-383.5 -146q-166 0 -287 71l-40 -53h-138l92 117q-157 148 -157 395z" />
    <glyph glyph-name="ugrave" unicode="&#xf9;" horiz-adv-x="1064" 
d="M532 -18q-97 0 -178 28t-134 72.5t-90 102.5t-53 115.5t-16 113.5v610h246v-604q0 -102 64.5 -156.5t160.5 -54.5t161 54.5t65 156.5v604h246v-610q0 -56 -16 -113.5t-53 -115.5t-90 -102.5t-134.5 -72.5t-178.5 -28zM680 1122h-84q-65 48 -126 129.5t-83 167.5h168
q6 -65 40.5 -146t84.5 -151z" />
    <glyph glyph-name="uacute" unicode="&#xfa;" horiz-adv-x="1064" 
d="M532 -18q-97 0 -178 28t-134 72.5t-90 102.5t-53 115.5t-16 113.5v610h246v-604q0 -102 64.5 -156.5t160.5 -54.5t161 54.5t65 156.5v604h246v-610q0 -56 -16 -113.5t-53 -115.5t-90 -102.5t-134.5 -72.5t-178.5 -28zM387 1122q50 70 84.5 151t40.5 146h168
q-22 -86 -83 -167.5t-126 -129.5h-84z" />
    <glyph glyph-name="ucircumflex" unicode="&#xfb;" horiz-adv-x="1064" 
d="M293 1102q50 70 84.5 151t40.5 146h231q6 -65 40.5 -146t84.5 -151h-84q-91 66 -158 176q-69 -114 -155 -176h-84zM532 -18q-97 0 -178 28t-134 72.5t-90 102.5t-53 115.5t-16 113.5v610h246v-604q0 -102 64.5 -156.5t160.5 -54.5t161 54.5t65 156.5v604h246v-610
q0 -56 -16 -113.5t-53 -115.5t-90 -102.5t-134.5 -72.5t-178.5 -28z" />
    <glyph glyph-name="udieresis" unicode="&#xfc;" horiz-adv-x="1064" 
d="M199 1249q0 68 42 110t111 42t112.5 -42.5t43.5 -109.5q0 -69 -43.5 -111t-112.5 -42t-111 42t-42 111zM559 1249q0 68 42.5 110t111.5 42t112 -42t43 -110q0 -69 -43 -111t-112 -42t-111.5 42t-42.5 111zM532 -18q-97 0 -178 28t-134 72.5t-90 102.5t-53 115.5
t-16 113.5v610h246v-604q0 -102 64.5 -156.5t160.5 -54.5t161 54.5t65 156.5v604h246v-610q0 -56 -16 -113.5t-53 -115.5t-90 -102.5t-134.5 -72.5t-178.5 -28z" />
    <glyph glyph-name="yacute" unicode="&#xfd;" horiz-adv-x="1003" 
d="M352 27l-352 997h256l246 -709l246 709h256l-363 -1024q-63 -180 -66 -188q-68 -171 -165 -244q-100 -74 -256 -74v225q50 0 95.5 29t73 74t38.5 99.5t-9 105.5zM356 1122q50 70 84.5 151t40.5 146h168q-22 -86 -83 -167.5t-126 -129.5h-84z" />
    <glyph glyph-name="ydieresis" unicode="&#xff;" horiz-adv-x="1003" 
d="M168 1249q0 68 42.5 110t111.5 42t112 -42t43 -110q0 -69 -43 -111t-112 -42t-111.5 42t-42.5 111zM528 1249q0 68 42.5 110t111.5 42t112.5 -42.5t43.5 -109.5q0 -69 -43.5 -111t-112.5 -42t-111.5 42t-42.5 111zM352 27l-352 997h256l246 -709l246 709h256l-363 -1024
q-63 -180 -66 -188q-68 -171 -165 -244q-100 -74 -256 -74v225q50 0 95.5 29t73 74t38.5 99.5t-9 105.5z" />
    <glyph glyph-name="Dcroat" unicode="&#x110;" horiz-adv-x="1325" 
d="M61 0v543h-102v184h102v707h543q317 0 503.5 -193.5t186.5 -515.5q0 -333 -185.5 -529t-504.5 -196h-543zM317 236h263q213 0 335.5 130t122.5 347q0 224 -122 354.5t-336 130.5h-263v-471h152v-184h-152v-307z" />
    <glyph glyph-name="dcroat" unicode="&#x111;" horiz-adv-x="1153" 
d="M846 1434h246v-138h47v-106h-47v-680q0 -241 -152.5 -383.5t-384.5 -142.5t-377 145t-145 381t143 383t367 147q105 0 184.5 -32.5t118.5 -83.5v266h-285v106h285v138zM279 512q0 -141 76.5 -222t205.5 -81q130 0 207.5 81t77.5 222t-77.5 222t-207.5 81
q-129 0 -205.5 -81t-76.5 -222z" />
    <glyph glyph-name="dotlessi" unicode="&#x131;" horiz-adv-x="491" 
d="M123 0v1024h246v-1024h-246z" />
    <glyph glyph-name="Lslash" unicode="&#x141;" horiz-adv-x="1040" 
d="M61 0v438l-51 -28l-57 102l108 59v863h256v-719l199 108l55 -100l-254 -141v-346h693v-236h-949z" />
    <glyph glyph-name="lslash" unicode="&#x142;" horiz-adv-x="368" 
d="M61 0v391l-49 -33l-55 91l104 65v920h246v-764l49 30l56 -88l-105 -67v-545h-246z" />
    <glyph glyph-name="OE" unicode="&#x152;" horiz-adv-x="2228" 
d="M31 717q0 337 195.5 540t527.5 203q281 0 469 -149v123h975v-236h-719v-326h592v-235h-592v-404h719v-235l-975 2v121q-189 -150 -469 -150q-220 0 -384.5 92.5t-251.5 261.5t-87 392zM287 717q0 -236 123.5 -373t343.5 -137q219 0 344 137t125 373q0 234 -125 371
t-344 137q-220 0 -343.5 -136.5t-123.5 -371.5z" />
    <glyph glyph-name="oe" unicode="&#x153;" horiz-adv-x="1933" 
d="M31 514q0 236 146 381t384 145q261 0 408 -170q70 81 174 124.5t231 43.5q238 0 383.5 -145t145.5 -381q0 -15 -5 -82h-800q20 -106 92.5 -164.5t181.5 -58.5q157 0 232 110h268q-51 -157 -182 -246t-316 -89q-128 0 -232.5 45t-174.5 127q-147 -170 -406 -170
q-238 0 -384 146t-146 384zM276 512q0 -141 77 -222t206 -81q130 0 207.5 81t77.5 222t-77.5 222t-207.5 81q-129 0 -206 -81t-77 -222zM1116 655h514q-32 75 -99 116.5t-159 41.5q-90 0 -157 -41.5t-99 -116.5z" />
    <glyph glyph-name="Scaron" unicode="&#x160;" horiz-adv-x="1118" 
d="M801 1829q-50 -70 -84.5 -151t-40.5 -146h-232q-6 65 -40.5 146t-84.5 151h84q91 -66 158 -176q68 112 156 176h84zM1087 416q0 -196 -128.5 -317.5t-378.5 -121.5q-177 0 -315.5 59t-233.5 150l162 176q176 -149 385 -149q71 0 122.5 15.5t79 43t39.5 58.5t12 67
q0 54 -27 95t-73.5 66t-106 45t-125.5 37t-132 36.5t-125.5 49.5t-106 70t-73.5 103t-27 145q0 185 130 298.5t367 113.5q158 0 294 -52t239 -140l-150 -187q-179 144 -380 144q-123 0 -183.5 -43.5t-60.5 -112.5q0 -46 27 -80t73.5 -55.5t106 -38.5t125.5 -34.5t132 -38
t125.5 -54t106 -77.5t73.5 -113.5t27 -157.5z" />
    <glyph glyph-name="scaron" unicode="&#x161;" horiz-adv-x="880" 
d="M682 1419q-50 -70 -84.5 -151t-40.5 -146h-231q-6 65 -40.5 146t-84.5 151h84q89 -65 157 -176q68 112 156 176h84zM293 748q0 -30 30.5 -51t80 -35t109 -28.5t118.5 -38.5t108.5 -57.5t80 -92t30.5 -136.5q0 -153 -109.5 -237t-289.5 -84q-77 0 -147 15.5t-122.5 41.5
t-87.5 49t-63 49l131 193q63 -60 140.5 -91.5t154.5 -31.5q66 0 106.5 22.5t40.5 65.5q0 31 -24 54t-63 36.5t-89 28t-102.5 27.5t-102.5 37.5t-89 55.5t-63 83.5t-24 119.5q0 140 99.5 218.5t273.5 78.5q237 0 426 -155l-131 -191q-147 121 -299 121q-59 0 -91 -18t-32 -49
z" />
    <glyph glyph-name="Ydieresis" unicode="&#x178;" horiz-adv-x="1210" 
d="M270 1659q0 68 42.5 109.5t111.5 41.5t112.5 -42t43.5 -109q0 -69 -43.5 -111.5t-112.5 -42.5t-111.5 42.5t-42.5 111.5zM631 1659q0 68 42 109.5t111 41.5t112.5 -42t43.5 -109q0 -69 -43.5 -111.5t-112.5 -42.5t-111 42.5t-42 111.5zM0 1434h268l338 -719l336 719h268
l-477 -1004v-430h-256v430z" />
    <glyph glyph-name="Zcaron" unicode="&#x17d;" horiz-adv-x="1064" 
d="M774 1829q-50 -70 -84.5 -151t-40.5 -146h-231q-6 65 -40.5 146t-84.5 151h84q91 -66 158 -176q69 114 155 176h84zM31 1198v236h1003v-174l-676 -1024h676v-236h-1003v174l676 1024h-676z" />
    <glyph glyph-name="zcaron" unicode="&#x17e;" horiz-adv-x="880" 
d="M682 1419q-50 -70 -84.5 -151t-40.5 -146h-231q-6 65 -40.5 146t-84.5 151h84q89 -65 157 -176q68 112 156 176h84zM31 799v225h819v-164l-475 -635h475v-225h-819v164l477 635h-477z" />
    <glyph glyph-name="circumflex" unicode="&#x2c6;" horiz-adv-x="604" 
d="M61 1102q50 70 84.5 151t40.5 146h232q6 -65 40.5 -146t84.5 -151h-84q-91 66 -158 176q-68 -112 -156 -176h-84z" />
    <glyph glyph-name="caron" unicode="&#x2c7;" horiz-adv-x="604" 
d="M543 1419q-50 -70 -84.5 -151t-40.5 -146h-232q-6 65 -40.5 146t-84.5 151h84q91 -66 158 -176q68 112 156 176h84z" />
    <glyph glyph-name="breve" unicode="&#x2d8;" horiz-adv-x="552" 
d="M276 1292q106 0 117 94h96q5 -53 -4 -102.5t-32.5 -92.5t-69 -69t-107.5 -26t-107.5 26t-69 69t-32.5 92.5t-4 102.5h97q11 -94 116 -94z" />
    <glyph glyph-name="dotaccent" unicode="&#x2d9;" horiz-adv-x="432" 
d="M61 1249q0 68 42.5 110t111.5 42t112.5 -42.5t43.5 -109.5q0 -69 -43.5 -111t-112.5 -42t-111.5 42t-42.5 111z" />
    <glyph glyph-name="ring" unicode="&#x2da;" horiz-adv-x="462" 
d="M231 1411q72 0 118 -45.5t46 -116.5q0 -72 -46 -118t-118 -46q-71 0 -116 46t-45 118q0 71 45.5 116.5t115.5 45.5zM231 1323q-35 0 -55 -20t-20 -54q0 -35 20 -55t55 -20q37 0 57.5 20t20.5 55q0 34 -21 54t-57 20z" />
    <glyph glyph-name="ogonek" unicode="&#x2db;" horiz-adv-x="462" 
d="M373 51q-69 -69 -107 -127t-39 -117q-1 -40 16 -69t43 -40.5t57 -15.5t58 5l-12 -140q-58 -20 -117 -20q-89 0 -150 49t-61 150q0 60 23.5 116.5t57.5 94t68 66.5t58 43l23 13z" />
    <glyph glyph-name="tilde" unicode="&#x2dc;" horiz-adv-x="851" 
d="M125 1120q-7 110 40 190.5t138 80.5q38 0 75.5 -17t63 -37.5t60 -37.5t67.5 -17q80 0 88 94h70q6 -109 -40 -189.5t-136 -80.5q-39 0 -76.5 17.5t-63 38t-60 38t-66.5 17.5q-81 0 -90 -97h-70z" />
    <glyph glyph-name="hungarumlaut" unicode="&#x2dd;" horiz-adv-x="614" 
d="M61 1122q50 70 84.5 151t40.5 146h168q-22 -86 -83 -167.5t-126 -129.5h-84zM260 1122q50 70 84.5 151t40.5 146h168q-22 -86 -83 -167.5t-126 -129.5h-84z" />
    <glyph glyph-name="uni03BC" unicode="&#x3bc;" horiz-adv-x="1228" 
d="M1106 0h-246v123q-107 -141 -289 -141q-126 0 -202 69v-563h-246v1536h246v-625q0 -81 56.5 -136.5t158.5 -55.5q117 0 196.5 78.5t79.5 232.5v506h246v-1024z" />
    <glyph glyph-name="endash" unicode="&#x2013;" horiz-adv-x="1073" 
d="M123 424v211h827v-211h-827z" />
    <glyph glyph-name="emdash" unicode="&#x2014;" horiz-adv-x="2109" 
d="M123 424v211h1864v-211h-1864z" />
    <glyph glyph-name="quoteleft" unicode="&#x2018;" horiz-adv-x="548" 
d="M426 1114q0 -67 -42 -108t-110 -41q-69 0 -110 43t-41 120q0 98 61.5 195.5t130.5 136.5l56 -22q-56 -86 -66 -174q56 -9 88.5 -49t32.5 -101z" />
    <glyph glyph-name="quoteright" unicode="&#x2019;" horiz-adv-x="548" 
d="M123 1311q0 67 41.5 108t109.5 41q69 0 110.5 -43.5t41.5 -120.5q0 -98 -61.5 -195t-131.5 -136l-55 22q56 86 66 174q-56 9 -88.5 49t-32.5 101z" />
    <glyph glyph-name="quotesinglbase" unicode="&#x201a;" horiz-adv-x="548" 
d="M123 133q0 67 41.5 108.5t109.5 41.5q69 0 110.5 -43.5t41.5 -120.5q0 -98 -62 -195.5t-131 -136.5l-55 23q56 86 66 174q-56 9 -88.5 48.5t-32.5 100.5z" />
    <glyph glyph-name="quotedblleft" unicode="&#x201c;" horiz-adv-x="925" 
d="M426 1114q0 -67 -42 -108t-110 -41q-69 0 -110 43t-41 120q0 98 61.5 195.5t130.5 136.5l56 -22q-56 -86 -66 -174q56 -9 88.5 -49t32.5 -101zM803 1114q0 -67 -42 -108t-110 -41q-69 0 -110 43t-41 120q0 98 61.5 195.5t130.5 136.5l56 -22q-56 -86 -66 -174
q56 -9 88.5 -49t32.5 -101z" />
    <glyph glyph-name="quotedblright" unicode="&#x201d;" horiz-adv-x="925" 
d="M500 1311q0 67 41.5 108t109.5 41q69 0 110.5 -43.5t41.5 -120.5q0 -98 -61.5 -195t-131.5 -136l-55 22q56 86 66 174q-56 9 -88.5 49t-32.5 101zM123 1311q0 67 41.5 108t109.5 41q69 0 110.5 -43.5t41.5 -120.5q0 -98 -61.5 -195t-131.5 -136l-55 22q56 86 66 174
q-56 9 -88.5 49t-32.5 101z" />
    <glyph glyph-name="quotedblbase" unicode="&#x201e;" horiz-adv-x="929" 
d="M504 133q0 67 41.5 108.5t109.5 41.5q69 0 110.5 -43.5t41.5 -120.5q0 -98 -62 -195.5t-131 -136.5l-55 23q56 86 66 174q-56 9 -88.5 48.5t-32.5 100.5zM123 133q0 67 41.5 108.5t109.5 41.5q69 0 110.5 -43.5t41.5 -120.5q0 -98 -62 -195.5t-131 -136.5l-55 23
q56 86 66 174q-56 9 -88.5 48.5t-32.5 100.5z" />
    <glyph glyph-name="dagger" unicode="&#x2020;" horiz-adv-x="755" 
d="M256 -512v952h-133v185h133v911h246v-911h131v-185h-131v-952h-246z" />
    <glyph glyph-name="daggerdbl" unicode="&#x2021;" horiz-adv-x="1165" 
d="M461 -512v899h-338v205h338v223h-338v205h338v516h246v-516h335v-205h-335v-223h335v-205h-335v-899h-246z" />
    <glyph glyph-name="bullet" unicode="&#x2022;" horiz-adv-x="735" 
d="M123 723q0 109 68 176.5t178 67.5q109 0 176 -67.5t67 -176.5q0 -110 -67 -178t-176 -68q-110 0 -178 68t-68 178z" />
    <glyph glyph-name="ellipsis" unicode="&#x2026;" horiz-adv-x="1409" 
d="M123 133q0 67 41.5 108.5t109.5 41.5t110 -41.5t42 -108.5q0 -69 -42 -110t-110 -41t-109.5 41t-41.5 110zM553 133q0 67 42 108.5t110 41.5t109.5 -41.5t41.5 -108.5q0 -69 -41.5 -110t-109.5 -41t-110 41t-42 110zM983 133q0 67 42 108.5t110 41.5t109.5 -41.5
t41.5 -108.5q0 -69 -41.5 -110t-109.5 -41t-110 41t-42 110z" />
    <glyph glyph-name="perthousand" unicode="&#x2030;" horiz-adv-x="2260" 
d="M61 1004q0 234 78.5 343t218.5 109q139 0 217 -109.5t78 -342.5t-78 -343t-217 -110q-140 0 -218.5 109.5t-78.5 343.5zM293 0l803 1434h219l-803 -1434h-219zM266 1004q0 -259 90 -259q95 0 95 259q0 258 -95 258q-90 0 -90 -258zM952 432q0 234 78.5 343.5t218.5 109.5
q139 0 217 -110t78 -343t-78 -342.5t-217 -109.5q-140 0 -218.5 109t-78.5 343zM1608 432q0 234 78.5 343.5t218.5 109.5q139 0 217 -110t78 -343t-78 -342.5t-217 -109.5q-140 0 -218.5 109t-78.5 343zM1157 432q0 -258 90 -258q94 0 94 258t-94 258q-90 0 -90 -258z
M1812 432q0 -258 91 -258q94 0 94 258t-94 258q-91 0 -91 -258z" />
    <glyph glyph-name="guilsinglleft" unicode="&#x2039;" horiz-adv-x="696" 
d="M489 948l146 -125l-297 -262l297 -262l-146 -125l-428 387z" />
    <glyph glyph-name="guilsinglright" unicode="&#x203a;" horiz-adv-x="696" 
d="M207 174l-146 125l297 262l-297 262l146 125l428 -387z" />
    <glyph glyph-name="Euro" unicode="&#x20ac;" horiz-adv-x="1239" 
d="M182 717v37h-121v204h152q64 235 244.5 368.5t447.5 133.5q151 0 273 -43l-74 -229q-84 37 -199 37q-155 0 -263.5 -69.5t-160.5 -197.5h439v-204h-482v-37q0 -44 2 -64h480v-204h-426q55 -115 160 -177.5t251 -62.5q115 0 199 37l74 -230q-122 -43 -273 -43
q-259 0 -437.5 126.5t-246.5 349.5h-160v204h123q-2 20 -2 64z" />
    <glyph glyph-name="trademark" unicode="&#x2122;" horiz-adv-x="1509" 
d="M268 737v582h-207v115h541v-115h-209v-582h-125zM692 737v697h144l202 -531l203 531h143v-697h-122v428l-162 -424v-4h-123v4l-162 424v-428h-123z" />
    <glyph glyph-name="minus" unicode="&#x2212;" horiz-adv-x="1155" 
d="M123 567v236h909v-236h-909z" />
    </font>
</defs>
</svg>
